<svg width="37" height="37" viewBox="0 0 37 37" fill="none" xmlns="http://www.w3.org/2000/svg">
<path d="M18.668 33.5C26.9523 33.5 33.668 26.7843 33.668 18.5C33.668 10.2157 26.9523 3.5 18.668 3.5C10.3837 3.5 3.668 10.2157 3.668 18.5C3.668 26.7843 10.3837 33.5 18.668 33.5Z" stroke="white" stroke-width="2.25"/>
<path d="M21.668 15.5C21.668 13.8431 20.3248 12.5 18.668 12.5C17.0111 12.5 15.668 13.8431 15.668 15.5C15.668 17.1569 17.0111 18.5 18.668 18.5" stroke="white" stroke-width="2.25" stroke-linecap="round"/>
<path d="M18.668 18.5C20.3248 18.5 21.668 19.8431 21.668 21.5C21.668 23.1569 20.3248 24.5 18.668 24.5C17.0111 24.5 15.668 23.1569 15.668 21.5" stroke="white" stroke-width="2.25" stroke-linecap="round"/>
<path d="M18.668 10.25V12.5" stroke="white" stroke-width="2.25" stroke-linecap="round" stroke-linejoin="round"/>
<path d="M18.668 24.5V26.75" stroke="white" stroke-width="2.25" stroke-linecap="round" stroke-linejoin="round"/>
</svg>
