<svg width="24" height="25" viewBox="0 0 24 25" fill="none" xmlns="http://www.w3.org/2000/svg">
<path d="M20 7.5L12 11.5L4 7.5" stroke="white" stroke-width="1.5" stroke-linecap="round" stroke-linejoin="round"/>
<path d="M18.6246 5.16762L13.6246 2.85827C12.5903 2.38058 11.4097 2.38058 10.3754 2.85827L5.37545 5.16762C3.93093 5.83479 3 7.32344 3 8.96617V16.0338C3 17.6766 3.93094 19.1652 5.37545 19.8324L10.3754 22.1417C11.4097 22.6194 12.5903 22.6194 13.6246 22.1417L18.6246 19.8324C20.0691 19.1652 21 17.6766 21 16.0338V8.96617C21 7.32344 20.0691 5.83479 18.6246 5.16762Z" stroke="white" stroke-width="1.5" stroke-linecap="round" stroke-linejoin="round"/>
<path d="M8 4.5L17 9.5V20" stroke="white" stroke-width="1.5" stroke-linecap="round" stroke-linejoin="round"/>
<path d="M12 11.5V22.5" stroke="white" stroke-width="1.5" stroke-linecap="round" stroke-linejoin="round"/>
</svg>
