<svg width="51" height="52" viewBox="0 0 51 52" fill="none" xmlns="http://www.w3.org/2000/svg">
<g clip-path="url(#clip0_1_28)">
<path d="M25.4065 30.7491C19.8388 30.7491 15.3093 26.2197 15.3093 20.6519C15.3093 15.0841 19.8388 10.5547 25.4065 10.5547C30.9738 10.5547 35.5038 15.0841 35.5038 20.6519C35.5038 26.2197 30.9738 30.7491 25.4065 30.7491Z" fill="white"/>
<path d="M25.4065 0.90625C11.6215 0.90625 0.406494 12.1213 0.406494 25.9063C0.406494 39.6913 11.6215 50.9063 25.4065 50.9063C39.1915 50.9063 50.4065 39.6913 50.4065 25.9063C50.4065 12.1213 39.1915 0.90625 25.4065 0.90625ZM41.9737 39.8485C40.0054 36.9301 37.2754 34.5329 34.1076 32.9968C32.8515 32.3879 31.3848 32.3968 30.0815 33.0229C28.6159 33.7274 27.0426 34.084 25.4065 34.084C23.7704 34.084 22.1976 33.7268 20.7315 33.0229C19.4298 32.3979 17.9626 32.3879 16.7054 32.9968C13.5376 34.5329 10.8076 36.9301 8.83872 39.8485C5.66038 36.0774 3.73983 31.2129 3.73983 25.9063C3.73983 13.959 13.4593 4.23958 25.4065 4.23958C37.3537 4.23958 47.0732 13.959 47.0732 25.9063C47.0732 31.2129 45.1526 36.0774 41.9737 39.8485Z" fill="white"/>
</g>
<defs>
<clipPath id="clip0_1_28">
<rect width="51" height="51" fill="white" transform="translate(0 0.5)"/>
</clipPath>
</defs>
</svg>
