<svg width="37" height="37" viewBox="0 0 37 37" fill="none" xmlns="http://www.w3.org/2000/svg">
<path d="M31.832 24.5V27.5C31.832 29.9853 29.8173 32 27.332 32C24.8468 32 22.832 29.9853 22.832 27.5V24.5C22.832 22.0147 24.8468 20 27.332 20C29.8173 20 31.832 22.0147 31.832 24.5ZM31.832 24.5V18.5C31.832 11.0442 25.7879 5 18.332 5C10.8762 5 4.83203 11.0442 4.83203 18.5V24.5M4.83203 24.5V27.5C4.83203 29.9853 6.84675 32 9.33203 32C11.8173 32 13.832 29.9853 13.832 27.5V24.5C13.832 22.0147 11.8173 20 9.33203 20C6.84675 20 4.83203 22.0147 4.83203 24.5Z" stroke="white" stroke-width="2.25" stroke-linecap="square" stroke-linejoin="round"/>
</svg>
